<svg xmlns="http://www.w3.org/2000/svg" viewBox="0 0 153.3 250">
    <path class="st0" d="M56.6,75.8L44.1,93c-6.2,8.6-4.3,23.8,4.2,30l23.1,16.7c4,2.9,4.3,5.7,2.4,8.7l3.4,2.5l11.7-16.2
        c7.2-10,6.6-23.6-4.1-31.4l-23.3-17c-2.8-2-3.1-4.9-1.5-8L56.6,75.8z"/>
    <path class="st0" d="M76.6,0L57.2,26.8c-9.1,12.6-5.8,34.1,6.6,43.2l31.9,23.4c6.5,4.7,7.3,16.8,2.6,23l2.7,2l22-30.9
        c9.9-13.9,9.3-34.4-6.2-45.7L82.7,17.1c-4.8-3.5-7.2-9.4-3.2-15L76.6,0z"/>
    <polygon class="st0" points="25.5,168.2 51.2,168.2 55.8,183.8 97.8,183.8 102.3,168.2 128,168.2 124.7,156.7 28.8,156.7   "/>
    <path class="st1" d="M37.5,220.3c4.5-2.6,7.3-6.5,7.3-11.9c0-10.6-8.7-15-18.2-15H0V250h26.3c11.2,0,23.2-4.9,21.2-17.9
        C46.5,224.7,43.5,223,37.5,220.3z M12,204.3h13.8c8.6,0,8.9,12.1,0.5,12.1H12V204.3z M27.4,239.3H12v-12.9h15.4
        C38.7,226.4,38.1,239.3,27.4,239.3z"/>
    <path class="st1" d="M90.3,220.3c4.5-2.6,7.3-6.5,7.3-11.9c0-10.6-8.7-15-18.2-15H52.8V250h26.3c11.2,0,23.2-4.9,21.2-17.9
        C99.2,224.7,96.3,223,90.3,220.3z M64.8,204.3h13.8c8.6,0,8.9,12.1,0.5,12.1H64.8V204.3z M80.2,239.3H64.8v-12.9h15.4
        C91.5,226.4,90.8,239.3,80.2,239.3z"/>
    <path class="st1" d="M153.1,232.1c-1.1-7.4-4.1-9.2-10.1-11.8c4.5-2.6,7.3-6.5,7.3-11.9c0-10.6-8.7-15-18.2-15h-26.6V250h26.3
        C143.1,250,155,245.1,153.1,232.1z M117.5,204.3h13.8c8.6,0,8.9,12.1,0.5,12.1h-14.4V204.3z M132.9,239.3h-15.4v-12.9h15.4
        C144.3,226.4,143.6,239.3,132.9,239.3z"/>
</svg>