<svg xmlns="http://www.w3.org/2000/svg" viewBox="0 0 583.3 583.3"><polygon points="181.7 384.7 334.7 284.9 334.7 198.7 181.7 298.5 "/><polygon points="76.5 348.9 172.1 384.7 172.1 298.5 76.5 262.7 "/><polygon points="176.9 283.7 320.3 191 226.5 150.8 82.5 246.2 "/><polygon points="497.3 93.5 344.3 193.3 344.3 279.5 497.3 179.7 "/><polygon points="482.9 85.8 389 45.6 245 141.1 339.5 178.5 "/><polygon points="105.2 537.7 258.2 437.9 258.2 351.7 105.2 451.5 "/><polygon points="95.6 451.5 0 415.7 0 501.9 95.6 537.7 "/><polygon points="161.6 399 73.5 361.2 6 402.6 100.4 436.7 "/><polygon points="506.8 167.3 511.6 169 572.8 131.2 506.8 102.9 "/><polygon points="267.8 432.5 420.8 332.7 420.8 246.5 267.8 346.3 "/><polygon points="430.3 241.1 430.3 327.3 583.3 227.5 583.3 141.3 "/></svg>