<svg xmlns="http://www.w3.org/2000/svg" version="1.1" x="0" y="0" width="154" height="189.7" viewBox="0 0 154 189.7" xml:space="preserve"><style type="text/css">
    .st0{fill:#ffffff;}
    .st1{fill:#1d1711;}
    .st2{fill:#1d1711;}
    .st3{fill-rule:evenodd;clip-rule:evenodd;fill:#ffffff;}
    .st4{fill-rule:evenodd;clip-rule:evenodd;fill:#1d1711;}
</style><rect class="st2" width="142.2" height="189.7"/><rect x="6.8" y="33.2" class="st3" width="128.2" height="6.5"/><rect x="6.8" y="41.5" class="st3" width="128.2" height="6.5"/><rect x="6.8" y="49.8" class="st3" width="128.2" height="6.5"/><rect x="6.8" y="58.1" class="st3" width="128.2" height="6.5"/><rect x="6.8" y="66.5" class="st3" width="128.2" height="6.5"/><rect x="6.8" y="74.8" class="st3" width="128.2" height="6.5"/><rect x="6.8" y="83.1" class="st3" width="128.2" height="6.5"/><rect x="6.8" y="91.4" class="st3" width="128.2" height="6.5"/><rect x="6.8" y="99.8" class="st3" width="128.2" height="6.5"/><rect x="6.8" y="108.1" class="st3" width="128.2" height="6.5"/><rect x="6.8" y="116.4" class="st3" width="128.2" height="6.5"/><rect x="6.8" y="124.7" class="st3" width="128.2" height="6.5"/><rect x="6.8" y="133.1" class="st3" width="128.2" height="6.5"/><rect x="6.8" y="141.4" class="st3" width="128.2" height="6.5"/><rect x="6.8" y="149.7" class="st3" width="128.2" height="6.5"/><path class="st4" d="M113.7 34.8c3.2 0 4.9 3.2 4.9 4.3 0 3-4.4 4.3-4.4 7.8 0 2.7 2.6 3.2 2.6 6.6 0 7.5-14.5 7.9-14.5 13.6 0 1.5 1.8 2.3 3.4 2.3 4.7 0 11.3-2 14.2-2 3.8 0 6.2 1.8 6.2 4.8 0 4.4-3.7 4.2-4.7 5.8 -0.8 1.3-1 6.3-6.7 6.3h-6c-0.8 0-4.1-1-6.2-1 -7.8-0.3-4.7 0-6.2 0 -2.4 0-6.5-0.2-6.5 2.3 0 0.5 1.5 1.8 2.3 1.8 0.3 0 0.5-0.1 0.8 0l0.1 0c0.6 0 6.5-1.5 7.8-1.5h2.8c3.8 0 9.3 2.2 9.3 6.6v3.3c0 7.1-7.3 12.6-11.4 12.6 -6.6 0-14.7-5.3-19.4-5.3 -2.8 0-7.5 3.6-7.5 6.8 0 4.4 6.7 5.7 6.7 11.3 0 2.6-1.7 7.4-7.7 8.2 -3.2 0.5-6.4-0.3-9.2-0.8 -3.4-0.6-3.4-3-8.4-2.4 -10.1 1.3-14.1 9.7-32.3 9.1 1.8-1.2 3.1-3.2 3.1-5.5 0-5.5-6.5-12.6-6.5-15.9 0-3.4 7.5-2.8 7.5-6.1 0-2.7-7-10.2-7-14.4 0-3.4 2-4.8 4.7-4.8 3.9 0 7.3 4 11.9 4 2.9 0 3.4-3.4 3.4-4.3 0-3.4-7.5-13.7-7.5-17.9 0-6.1 6-6.5 7.5-11.3 1.7-5.5 4.3-8 8.8-7.8 11.2 0.4 6.3 20.8 11.9 20.9 2.1 0 3.4-4.5 3.4-14.9V54c0-2.1 1.9-9.6 6.2-9.6h2.8c5 0 7.1-6.1 10.9-6.1 2.4 0 3.9 1.8 3.9 4 0 4-4.7 8.9-4.7 10.8 0 0.7 0.8 1.9 1.6 1.5 9.7-5.2 4.1-11.1 13.1-16.9 1.1-0.7 5.6 1 5.8 1C106.4 38.9 108.2 34.8 113.7 34.8"/><path d="M47 61.6c0 0.1 0.1 0.2 0.1 0.2C47.1 61.7 47 61.6 47 61.6zM104.1 77.2c0.1 0 0.2 0 0.4 0 5.3 0 10.3-2.9 10.9-3 -0.2 0-0.3 0-0.5 0 0 0 0 0 0 0 -0.1 0-0.3 0-0.4 0.1 0 0 0 0 0 0 -0.1 0-0.3 0.1-0.4 0.1 0 0 0 0 0 0 -0.1 0-0.3 0.1-0.4 0.1 0 0 0 0 0 0 -0.1 0-0.3 0.1-0.4 0.2 -0.5 0.2-0.9 0.4-1.5 0.6 -1.1 0.4-2.6 0.6-4.8 0.4 -1-0.1-3.1 0-5.7 0 -2.8 0-4.6-0.8-5.4-0.8 0 0-2.7-0.2-4.4 0 -2.8 0.3-5.3 1.6-7 2 1.7 0.3 2.2-0.5 3.6-0.8 2.5-0.4 4.8-0.3 6.5-0.3 2.7 0.1 6.7 1.3 6.7 1.3 1.1 0.1 1.7 0.1 2.6 0C103.8 77.2 103.9 77.2 104.1 77.2 104 77.2 104 77.2 104.1 77.2zM37.4 115.8c0-3.8-1.3-10.2-5.9-15.4 1.1 1.3 5.9 10.9 5.9 16.6V115.8zM48.4 66.5c-0.2-1.2-0.1-1.3-1.3-4.7 0 0 0 0 0 0 0 0 0 0 0 0 0 0 0 0 0 0.1 0.8 2.8 0.4 14.6 0.4 14.6 0.1 4.1 4.4 11 4.6 16.4 0 0.2 0 0.4 0 0.5v-0.8c0-7.2-2.4-9-3.1-14.9 -0.4-3.9 0.2-6.2-0.5-10.1C48.5 67.2 48.4 66.9 48.4 66.5 48.4 66.6 48.4 66.6 48.4 66.5 48.4 66.5 48.4 66.5 48.4 66.5zM47.1 61.8c0-0.1-0.1-0.2-0.1-0.2C47 61.6 47.1 61.7 47.1 61.8zM73.7 65.6v-6.8c0-1 1.1-5 1.3-5.5 -0.1 0.1-0.2 0.2-0.2 0.3 0 0 0 0 0 0 -2.1 2.6-2.6 7-2.6 8.5v7.3c0 1.1-0.5 2-0.7 2.8 0 0.1 0 0.1-0.1 0.2C72.9 69.3 73.7 65.7 73.7 65.6zM62.5 113.2c0 0-1.2-0.3-1.9-0.3 -0.7 0-2.2 0.3-2.2 0.3 -1.4 0-5.4 1.8-5.4 1.8 2.5-0.6 3.9-0.9 6.5-1 1.8-0.1 4.1 0.1 5.7 0.3 0 0 0 0 0 0 1.1 0.1 1.9 0.2 2 0.2 0 0 0 0 0 0C66.6 114.3 62.7 113.2 62.5 113.2zM101.1 95.1c-6.1 0-9.7-2.8-16-3 -0.3 0-0.6 0-0.9 0 -1.2 0-2.1 0-3.5 0 -5.2 0-10.6 2.4-11.6 2.5 1.8 0.2 6.8-1.5 9.8-1.5h4.4c3.5 0 9.5 2.1 13.5 2 0.1 0 0.1 0 0.2 0 0 0 0.1 0 0.1 0 0 0 0.1 0 0.1 0 0.1 0 0.1 0 0.2 0 0 0 0 0 0 0 0.1 0 0.1 0 0.2 0 0.6 0 1.5 0 2.2 0 0 0 0 0 0 0 0.5 0 1 0 1.3 0 0 0 0 0 0 0C101 95.1 101 95.1 101.1 95.1zM92.4 64.2c4.2-3.2 7.5-6.1 9.3-8.2 6.5-7.3 5-7.9 5.4-10.5 -0.1 0.3-0.2 0.6-0.4 0.9 0 0 0 0 0 0 -0.4 0.9-0.8 1.7-1.2 2.5 0 0 0 0 0 0 -1.2 2.2-2.8 4.2-5.2 6.6 -7.9 7.7-14.5 10.3-21.7 17.6C72.5 79.3 65 88 61.9 92.4c-11.5 16.3-12.7 20.3-25.4 33.3 0 0 0 0 0 0 -0.2 0.2-0.4 0.4-0.7 0.7 0 0 0 0 0 0 -0.2 0.2-0.5 0.5-0.7 0.7 0 0 7.9-2.1 21.6-24.3 0 0 4.1-6.1 11-14.6C74.2 80 87.2 68.1 92.4 64.2z"/><path class="st1" d="M22 132.3c0 0-5.1 7.3-5.2 15.7 2.2 3.1 5.3 6.1 5.3 6.1s-2.7-11.2 1.9-21.7C23.6 130.3 22 132.3 22 132.3z"/><path d="M87.8 145.1c0 3.3 0 6.7 2.7 7.3v0.5h-10v-0.5c2.7-0.5 2.7-3.6 2.7-6.9v-24.1c0-3.3 0-6.7-2.7-7.3v-0.5h10v0.5c-2.7 0.6-2.7 3.6-2.7 6.9V145.1z"/><path d="M110.1 122.7l-0.3 0.1c-1.3-6-5.2-10.1-9.2-10.1 -2.3 0-5.2 1.3-5.2 5.5 0 3.2 2.8 4.2 4.3 4.9l5.8 2.8c5.4 2.6 7.6 7.5 7.6 13 0 10.5-4.4 15.7-11.3 15.7 -3.4 0-6.1-2.1-8-2.1 -0.6 0-1 0.5-1.4 1.2L90 137.1l0.4-0.2c1.5 7.7 5.4 13.8 10.7 13.8 5.4 0 7.9-3.4 7.9-9.1 0-5.8-3.3-7.3-6.1-8.7l-5.5-2.7c-3.2-1.6-6-4-6-10.1 0-7.7 4.7-11.1 8.5-11.1 3.2 0 4.8 1.7 7.2 1.7 0.7 0 1.1-0.4 1.5-1.2L110.1 122.7z"/><path d="M127.6 113.4l-0.1 0.5c-1.1 0.2-2.3 0.5-2.3 2.6 0 1.7 0.4 3.6 0.6 5l3.3 23c0.9 6.3 1.1 7.4 3.8 8l-0.1 0.5h-14.1l0.1-0.5c0.9-0.2 1.8-0.4 2.6-1.3 1.3-1.5 1.6-3.5 1.6-4.6 0-7.4-8.2-11.4-12.5-11.4 -0.4 0-1.1 0.1-1.5 0.1l-4.4 7.9c-1.8 3-2.9 5.1-2.9 6.8 0 0.8 0.4 2.2 2.8 2.4l-0.1 0.5H91.2l0.1-0.5c1.2-0.4 2.9-0.8 4.5-2.7 2.6-3.2 6.2-9 7.2-10.7l8.5-14.6c3.5-6.1 4.7-8 4.7-9.3 0-1.2-1.1-1.2-1.6-1.2l0.1-0.5H127.6zM110.7 132.3c5.3 0.2 7.9 1.9 11.1 4.6L119 118 110.7 132.3z"/><path class="st0" d="M21.6 15.7c-1.9 0-3.1 1.2-3.1 3 0 1.8 1.1 3 3 3 1.2 0 2.3-0.5 3.6-1.4L24.8 26c-1.3 0.5-2.5 0.7-3.8 0.7 -2 0-3.8-0.6-5.2-1.6 -2.2-1.5-3.3-3.8-3.3-6.5 0-4.7 3.6-8.1 8.6-8.1 1.3 0 2.5 0.3 3.8 0.8v5.7C23.8 16.1 22.8 15.7 21.6 15.7zM27.4 11h10.7v4.2h-5.1v1.5h4.6v3.9h-4.6v1.6h5.2v4.2H27.4V11zM40.6 11h7.3c4.3 0 6.5 1.9 6.5 5.2 0 2.2-1.2 3.7-3.1 3.9l4.3 6.2h-6.5l-2.8-5.1v5.1h-5.7V11zM46.3 17.9h0.9c1.1 0 1.7-0.5 1.7-1.5s-0.6-1.5-1.7-1.5h-0.9V17.9zM58.8 16h-3.2v-5h12.2v5h-3.2v10.3h-5.8V16zM69.7 11h5.9v15.3h-5.9V11zM78.7 11h10.7v4.2h-5v1.8H89v3.9h-4.5v5.5h-5.8V11zM91.5 11h5.9v15.3h-5.9V11zM100.5 11h10.7v4.2h-5.1v1.5h4.6v3.9h-4.6v1.6h5.2v4.2h-10.9V11zM113.7 11h4.7c2.8 0 4.9 0.3 6.4 1 2.8 1.3 4.3 3.8 4.3 6.7 0 2.5-1.2 4.7-3.3 6.1 -2.1 1.4-4.6 1.5-7.8 1.5h-4.2V11zM123.2 18.7c0-2-1.2-3-3.5-3h-0.2v5.9C122 21.6 123.2 20.8 123.2 18.7z"/><path class="st0" d="M17.9 165.5h6.3l5.5 15.3h-6.1l-0.5-1.9h-4.3l-0.5 1.9h-6.1L17.9 165.5zM22.1 175.3l-0.5-1.7c-0.2-0.8-0.6-1.9-0.6-3.4h-0.1c-0.1 1.5-0.4 2.6-0.6 3.4l-0.5 1.7H22.1zM30.6 165.5h7.1c4.2 0 6.4 1.9 6.4 5.2 0 2.2-1.2 3.7-3 3.9l4.2 6.2h-6.4l-2.8-5.1v5.1h-5.6V165.5zM36.2 172.5H37c1.1 0 1.7-0.5 1.7-1.5s-0.6-1.5-1.7-1.5h-0.9V172.5zM46.4 165.5h7.5c3.3 0 5.1 1.7 5.1 4.2 0 1.7-0.9 2.8-2.5 3.2 2.1 0.4 3.2 1.6 3.2 3.6 0 2.8-2 4.3-5.9 4.3h-7.5V165.5zM51.7 171.3h0.8c0.9 0 1.4-0.4 1.4-1.1 0-0.7-0.5-1.1-1.4-1.1h-0.8V171.3zM51.7 177.1h0.9c1.2 0 1.8-0.5 1.8-1.2 0-0.8-0.6-1.2-1.8-1.2h-0.9V177.1zM75.7 178.9c-1.5 1.5-3.7 2.3-6 2.3 -2.4 0-4.5-0.8-6-2.3 -1.5-1.5-2.4-3.4-2.4-5.7s0.8-4.2 2.4-5.7c1.6-1.5 3.7-2.3 6-2.3s4.5 0.8 6 2.3c1.5 1.5 2.4 3.5 2.4 5.7C78.2 175.5 77.3 177.4 75.7 178.9zM72.4 173.2c0-1.8-1.1-2.9-2.6-2.9s-2.7 1.1-2.7 2.9c0 1.8 1.1 2.9 2.7 2.9S72.4 175 72.4 173.2zM80.5 165.5h7.1c4.2 0 6.4 1.9 6.4 5.2 0 2.2-1.2 3.7-3 3.9l4.2 6.2h-6.4l-2.8-5.1v5.1h-5.6V165.5zM86.1 172.5H87c1.1 0 1.7-0.5 1.7-1.5s-0.6-1.5-1.7-1.5h-0.9V172.5zM96.4 165.5h5.8v15.3h-5.8V165.5zM105.6 175.3c1.5 1 2.8 1.6 4 1.6 0.8 0 1.3-0.3 1.3-0.8 0-0.7-0.8-0.8-2.1-1.1 -2.7-0.6-4.1-2-4.1-4.2 0-3.2 2.6-5.6 6.6-5.6 1.8 0 3.5 0.5 5.3 1.4l-1.7 4c-1.1-0.8-2.3-1.2-3.2-1.2 -0.8 0-1.2 0.3-1.2 0.7 0 0.8 1.1 0.9 2.9 1.3 2.1 0.5 3.5 2 3.5 4.1 0 3.3-2.7 5.8-6.8 5.8 -2.1 0-4.2-0.6-6.2-1.7L105.6 175.3zM120.8 170.5h-3.2v-5h12v5h-3.2v10.3h-5.7V170.5z"/><path d="M152.6 181.9c0.9 0.9 1.4 2 1.4 3.2 0 1.3-0.5 2.4-1.4 3.2 -1 0.9-2.2 1.4-3.4 1.4 -1.3 0-2.5-0.5-3.4-1.4 -0.9-0.9-1.4-2-1.4-3.2 0-1.2 0.5-2.4 1.4-3.3 0.9-0.9 2.1-1.3 3.4-1.3C150.5 180.6 151.7 181 152.6 181.9zM152.2 182.3c-0.8-0.8-1.9-1.2-3-1.2 -1.1 0-2.2 0.4-3 1.2 -0.8 0.8-1.3 1.8-1.3 2.9 0 1.1 0.4 2.1 1.2 2.8s1.9 1.2 3 1.2c1.1 0 2.2-0.4 3-1.2 0.8-0.7 1.2-1.7 1.2-2.8C153.4 184.1 153 183.1 152.2 182.3zM151.6 183.9c0 0.7-0.5 1.3-1.3 1.4l1.2 2.4h-1l-1.2-2.3h-1.2v2.3h-0.9v-5.3h2C150.8 182.5 151.6 182.9 151.6 183.9zM148.2 183v1.8h1c1 0 1.5-0.2 1.5-0.9 0-0.7-0.5-0.9-1.5-0.9H148.2z"/><path d="M96.2 47.5c0 3 2 5.7 2 5.7 -0.7-1.9-0.9-3-1.1-5 -0.1-1.3 0.1-3.1 0.2-4.4 0 0 0 0 0 0 0.1-0.9 0.2-1.5 0.2-1.5 0 0 0 0 0 0C97.3 42.7 96.2 44.5 96.2 47.5z"/></svg>