<svg xmlns="http://www.w3.org/2000/svg" viewBox="0 0 448.7 448.7"><path d="M410.9 281.9l-45.6 12.2 -30.8-17.8 50.5-13.5c5.3-1.4 8.5-6.9 7.1-12.2 -1.4-5.3-6.9-8.5-12.2-7.1l-69.8 18.7 -26.4-15.3c-0.9-0.5-1.8-0.9-2.8-1.1l28.1-12.4c3.6-1.6 6-5.2 6-9.1 0-4-2.3-7.6-6-9.2l-28.1-12.4c1-0.2 1.9-0.6 2.8-1.1l26.4-15.3 69.8 18.7c0.9 0.2 1.7 0.3 2.6 0.3 4.4 0 8.5-2.9 9.7-7.4 1.4-5.3-1.7-10.8-7.1-12.2l-50.5-13.5 30.8-17.8 45.6 12.2c0.9 0.2 1.7 0.3 2.6 0.3 4.4 0 8.5-2.9 9.7-7.4 1.4-5.3-1.7-10.8-7.1-12.2l-26.3-7.1 25.3-14.6c4.8-2.8 6.4-8.9 3.7-13.7 -2.8-4.8-8.9-6.4-13.7-3.7l-25.3 14.6 7.1-26.3c1.4-5.3-1.7-10.8-7.1-12.2 -5.3-1.4-10.8 1.7-12.2 7.1l-12.2 45.6 -30.8 17.8 13.5-50.5c1.4-5.3-1.7-10.8-7.1-12.2 -5.3-1.4-10.8 1.7-12.2 7.1l-18.7 69.8 -26.4 15.3c-0.9 0.5-1.7 1.1-2.3 1.8l3.3-30.5c0.4-3.9-1.5-7.8-4.9-9.7 -3.4-2-7.7-1.8-10.9 0.6l-24.8 18.2c0.3-0.9 0.5-2 0.5-3v-30.5l51.1-51.1c3.9-3.9 3.9-10.2 0-14.1 -3.9-3.9-10.2-3.9-14.1 0l-36.9 36.9V67.5l33.4-33.4c3.9-3.9 3.9-10.2 0-14.1 -3.9-3.9-10.2-3.9-14.1 0l-19.3 19.3V10c0-5.5-4.5-10-10-10 -5.5 0-10 4.5-10 10v29.2l-19.3-19.3c-3.9-3.9-10.2-3.9-14.1 0 -3.9 3.9-3.9 10.2 0 14.1l33.4 33.4v35.5L177.4 66c-3.9-3.9-10.2-3.9-14.1 0 -3.9 3.9-3.9 10.2 0 14.1l51.1 51.1v30.5c0 1 0.2 2 0.4 2.9l-24.7-18.1c-3.2-2.3-7.5-2.6-10.9-0.6 -3.4 2-5.4 5.8-4.9 9.7l3.3 30.6c-0.7-0.7-1.5-1.4-2.4-1.9l-26.4-15.3 -18.7-69.8c-1.4-5.3-6.9-8.5-12.2-7.1 -5.3 1.4-8.5 6.9-7.1 12.2L124.2 155l-30.8-17.8L81.2 91.6c-1.4-5.3-6.9-8.5-12.2-7.1 -5.3 1.4-8.5 6.9-7.1 12.2l7.1 26.3L43.7 108.5c-4.8-2.8-10.9-1.1-13.7 3.7 -2.8 4.8-1.1 10.9 3.7 13.7l25.3 14.6 -26.3 7.1c-5.3 1.4-8.5 6.9-7.1 12.2 1.2 4.5 5.2 7.4 9.7 7.4 0.9 0 1.7-0.1 2.6-0.3l45.6-12.2 30.8 17.8 -50.5 13.5c-5.3 1.4-8.5 6.9-7.1 12.2 1.2 4.5 5.2 7.4 9.7 7.4 0.9 0 1.7-0.1 2.6-0.3l69.8-18.7 26.4 15.3c0.9 0.5 1.8 0.9 2.7 1.1l-28 12.3c-3.6 1.6-6 5.2-6 9.1 0 4 2.3 7.6 6 9.2l28.2 12.4c-1 0.2-2 0.6-2.9 1.1l-26.4 15.3 -69.8-18.7c-5.3-1.4-10.8 1.7-12.2 7.1 -1.4 5.3 1.7 10.8 7.1 12.2l50.5 13.5 -30.8 17.8 -45.6-12.2c-5.3-1.4-10.8 1.7-12.2 7.1 -1.4 5.3 1.7 10.8 7.1 12.2l26.3 7.1 -25.3 14.6c-4.8 2.8-6.4 8.9-3.7 13.7 1.9 3.2 5.2 5 8.7 5 1.7 0 3.4-0.4 5-1.3l25.3-14.6 -7.1 26.3c-1.4 5.3 1.7 10.8 7.1 12.2 0.9 0.2 1.7 0.3 2.6 0.3 4.4 0 8.5-2.9 9.7-7.4l12.2-45.6 30.8-17.8 -13.5 50.5c-1.4 5.3 1.7 10.8 7.1 12.2 0.9 0.2 1.7 0.3 2.6 0.3 4.4 0 8.5-2.9 9.7-7.4l18.7-69.8 26.4-15.3c0.9-0.5 1.7-1.1 2.3-1.8l-3.3 30.4c-0.4 3.9 1.5 7.8 4.9 9.7 3.4 2 7.7 1.8 10.9-0.6l24.8-18.2c-0.3 1-0.5 2-0.5 3v30.5l-51.1 51.1c-3.9 3.9-3.9 10.2 0 14.1 2 2 4.5 2.9 7.1 2.9s5.1-1 7.1-2.9l36.9-36.9v35.5l-33.4 33.4c-3.9 3.9-3.9 10.2 0 14.1 2 2 4.5 2.9 7.1 2.9 2.6 0 5.1-1 7.1-2.9l19.3-19.3v29.2c0 5.5 4.5 10 10 10 5.5 0 10-4.5 10-10v-29.2l19.3 19.3c3.9 3.9 10.2 3.9 14.1 0 3.9-3.9 3.9-10.2 0-14.1l-33.4-33.4v-35.5l36.9 36.9c3.9 3.9 10.2 3.9 14.1 0 3.9-3.9 3.9-10.2 0-14.1l-51.1-51.1v-30.5c0-1-0.2-2-0.4-3l24.7 18.1c1.8 1.3 3.8 1.9 5.9 1.9 1.7 0 3.4-0.4 5-1.3 3.4-2 5.4-5.8 4.9-9.7l-3.3-30.6c0.7 0.7 1.5 1.4 2.4 1.9l26.4 15.3 18.7 69.8c1.2 4.5 5.2 7.4 9.7 7.4 0.9 0 1.7-0.1 2.6-0.3 5.3-1.4 8.5-6.9 7.1-12.2l-13.5-50.4 30.8 17.8 12.2 45.6c1.2 4.5 5.2 7.4 9.7 7.4 0.9 0 1.7-0.1 2.6-0.3 5.3-1.4 8.5-6.9 7.1-12.2l-7.1-26.3 25.3 14.6c1.6 0.9 3.3 1.3 5 1.3 3.5 0 6.8-1.8 8.7-5 2.8-4.8 1.1-10.9-3.7-13.7l-25.3-14.6 26.3-7.1c5.3-1.4 8.5-6.9 7.1-12.2C421.7 283.7 416.2 280.5 410.9 281.9zM255.2 235.3c-4 1.8-6.4 5.9-5.9 10.2l2.9 27 -21.9-16.1c-1.8-1.3-3.8-1.9-5.9-1.9 -2.1 0-4.1 0.6-5.9 1.9l-21.9 16 3-27c0.5-4.3-1.9-8.5-5.9-10.2l-24.9-11 24.9-10.9c4-1.8 6.4-5.9 5.9-10.2l-2.9-27 21.9 16.1c3.5 2.6 8.3 2.6 11.8 0l21.9-16 -3 27c-0.5 4.3 1.9 8.5 5.9 10.2l24.9 11L255.2 235.3z"/></svg>