<svg xmlns="http://www.w3.org/2000/svg" viewBox="0 0 590.1 590.1"><path d="M537.8 174.7c0-44.8-34-81.6-77.6-86.1 -12.2-33-43.9-56.5-81.1-56.5 -16.3 0-31.5 4.6-44.5 12.4C319.8 17.9 291.5 0 259 0c-43.1 0-78.8 31.6-85.4 72.8 -3.5-0.4-7.1-0.7-10.7-0.7 -47.8 0-86.6 38.8-86.6 86.6 0 2.3 0.2 4.6 0.4 6.9 -24.2 15.3-40.4 42.3-40.4 73.2 0 27.2 12.6 51.5 32.3 67.4 -0.1 1.6-0.2 3.1-0.2 4.7 0 47.8 38.8 86.6 86.6 86.6 14.3 0 27.8-3.5 39.7-9.7 16.5 11.8 40.1 26.7 51.6 23.7 0 0 4.3 65.9 3.3 82.6 -1.7 31.8-11.3 67.3-18 96h104.1c0 0-15.3-64-16-85.3 -0.7-21.4 6.7-60.7 6.7-60.7l36.1-37.4c13.9 9.5 30.7 14.9 48.8 14.9 44.8 0 81.6-34.1 86.1-77.6 33-12.2 56.5-44 56.5-81.2 0-22-8.3-42-21.8-57.3C535.7 195.9 537.8 185.6 537.8 174.7zM214.6 373.4c6.9-6.6 12.8-14.4 17.2-23l17 35.6C248.8 386.1 239.6 390.2 214.6 373.4zM278.2 395.4c-8.8 1.6-23.8-25.5-34.4-47.5 11.8 6 25.1 9.5 39.3 9.5 3.6 0 7.2-0.3 10.7-0.7C291 374.3 286.2 394 278.2 395.4zM315.6 412.8c-20.3 5.7-8.2-36.5-2.3-60.9 4.2-1.6 8.3-3.4 12.2-5.6 2.3 17.8 10.1 33.8 21.5 46.5C337 401.6 325.6 410 315.6 412.8z"/></svg>